<svg xmlns="http://www.w3.org/2000/svg" width="46" height="32" viewBox="0 0 46 32"><defs><style>.cls-1,.cls-2{opacity: 0.3;fill:none;stroke:#fff;stroke-miterlimit:10;stroke-width:2px;}.cls-2{stroke-linecap:round;}</style></defs><title>Ресурс 1</title><g id="Слой_2" data-name="Слой 2"><g id="Layer_2_copy" data-name="Layer 2 copy"><circle class="cls-1" cx="6.69" cy="26.6" r="3.48"/><circle class="cls-1" cx="6.69" cy="26.49" r="1.11"/><circle class="cls-1" cx="14.07" cy="26.6" r="3.48"/><circle class="cls-1" cx="14.07" cy="26.49" r="1.11"/><circle class="cls-1" cx="37.17" cy="26.6" r="3.48"/><circle class="cls-1" cx="37.17" cy="26.49" r="1.11"/><line class="cls-1" x1="33.69" y1="26.26" x2="17.75" y2="26.26"/><rect class="cls-1" x="23.16" y="13.84" width="3.67" height="8.56"/><line class="cls-2" x1="26.83" y1="1" x2="26.83" y2="22.4"/><polyline class="cls-2" points="21.67 6.26 25.04 9.63 25.04 13.74"/><line class="cls-2" x1="9.19" y1="22.4" x2="14.85" y2="19.31"/><path class="cls-2" d="M1,22.4H30.8l1.88-.89a8.66,8.66,0,0,1,8.85.86L43.2,23.6a1,1,0,0,0,1.63.26h0v-3.2a1.47,1.47,0,0,0-1.47-1.47h0V16.65l.17-.11a2.71,2.71,0,0,0,1.3-2.32V6h0a3.11,3.11,0,0,0-3.11-3.14H30a3.26,3.26,0,0,0-3.25,3.26V22.4"/><polyline class="cls-1" points="44.83 11.27 38.84 11.27 37.17 10.07 34.97 10.07 34.97 21.14"/><line class="cls-1" x1="34.2" y1="2.88" x2="34.2" y2="10.07"/><line class="cls-1" x1="36.6" y1="2.88" x2="36.6" y2="20.43"/><path class="cls-1" d="M28.4,13h2.73a0,0,0,0,1,0,0v0a2.42,2.42,0,0,1-2.42,2.42H28.4a0,0,0,0,1,0,0V13A0,0,0,0,1,28.4,13Z"/><line class="cls-1" x1="28.12" y1="17.42" x2="30.95" y2="17.42"/><line class="cls-1" x1="28.12" y1="19.38" x2="30.95" y2="19.38"/><line class="cls-2" x1="44.83" y1="13.52" x2="40.65" y2="13.52"/><line class="cls-2" x1="44.83" y1="15.24" x2="42.31" y2="15.24"/><line class="cls-2" x1="28.98" y1="6.26" x2="33.69" y2="6.26"/><line class="cls-2" x1="28.4" y1="8.29" x2="33.69" y2="8.29"/></g></g></svg>