<svg xmlns="http://www.w3.org/2000/svg" width="40" height="17" viewBox="0 0 39.71 16.75"><defs><style>.cls-1,.cls-2,.cls-3{opacity: 0.3;fill:none;stroke:#fff;stroke-miterlimit:10;}.cls-1,.cls-3{stroke-width:2px;}.cls-3{stroke-linecap:round;}</style></defs><title>Ресурс 1</title><g id="Слой_2" data-name="Слой 2"><g id="Layer_2" data-name="Layer 2"><line class="cls-1" x1="29.24" y1="12.73" x2="12.47" y2="12.73"/><path class="cls-1" d="M5.88,12.73S1,12.58,1,9.92c0-1.47,0-3,0-4A1.37,1.37,0,0,1,2.39,4.55h2S10.7.81,17.45,1c4.14.38,4.61.75,8.69,3.35,1.46.92,5.34,1.83,7.79,2.09,3,.33,5.21,2.6,4.71,5.58l-.09.7h-3.2"/><path class="cls-1" d="M1.79,6.87h1.7a1,1,0,0,1,1,1v0a1.7,1.7,0,0,1-1.7,1.7h-1a0,0,0,0,1,0,0V6.87a0,0,0,0,1,0,0Z"/><circle class="cls-1" cx="9.14" cy="12.73" r="3.03"/><circle class="cls-2" cx="9.14" cy="12.65" r="0.81"/><circle class="cls-1" cx="31.96" cy="12.73" r="3.03"/><circle class="cls-2" cx="31.96" cy="12.65" r="0.81"/><path class="cls-3" d="M7.13,3.21S8.4,6.33,10.57,6.33h22.2"/><line class="cls-3" x1="9.95" y1="9.27" x2="11.36" y2="1.76"/><polyline class="cls-3" points="19.44 12.35 19.44 5.96 17.82 1.39"/><path class="cls-1" d="M37.76,8.94A.94.94,0,1,1,37,7.83"/></g></g></svg>