<svg xmlns="http://www.w3.org/2000/svg" width="42.03" height="15" viewBox="0 0 42.03 15">
  <defs>
    <style>
      .cls-1 {
        fill: #fff;
        fill-rule: evenodd;
      }
    </style>
  </defs>
  <path id="Rounded_Rectangle_1_copy_2" data-name="Rounded Rectangle 1 copy 2" class="cls-1" d="M1431.81,1645.82a2.747,2.747,0,0,1,3.94,0l9.13,9.31a2.892,2.892,0,0,1,0,4.03,2.747,2.747,0,0,1-3.94,0l-9.13-9.32A2.88,2.88,0,0,1,1431.81,1645.82Zm22.17,0a2.747,2.747,0,0,0-3.94,0l-9.13,9.31a2.892,2.892,0,0,0,0,4.03,2.747,2.747,0,0,0,3.94,0l9.13-9.32A2.88,2.88,0,0,0,1453.98,1645.82Zm-3.97,0a2.747,2.747,0,0,1,3.94,0l9.13,9.31a2.892,2.892,0,0,1,0,4.03,2.747,2.747,0,0,1-3.94,0l-9.13-9.32A2.88,2.88,0,0,1,1450.01,1645.82Zm22.17,0a2.747,2.747,0,0,0-3.94,0l-9.14,9.31a2.911,2.911,0,0,0,0,4.03,2.759,2.759,0,0,0,3.95,0l9.13-9.32A2.88,2.88,0,0,0,1472.18,1645.82Z" transform="translate(-1431 -1645)"/>
</svg>
